<svg xmlns="http://www.w3.org/2000/svg" viewBox="0 0 1230.28 213.1">
  <g>
    <path d="M489.8,132.7l-39-78.1a11.56,11.56,0,0,0-10.1-6.2H420.4a11.49,11.49,0,0,0-10.1,6.2l-38.8,78.1a1.94,1.94,0,0,0,.7,2.7,2,2,0,0,0,1.1.3h17.4a2.55,2.55,0,0,0,2.5-1.5L402,117h57.6l8.6,17.2a2.55,2.55,0,0,0,2.6,1.5h17.5a2,2,0,0,0,1.8-2.3A4.88,4.88,0,0,0,489.8,132.7ZM410.4,99.8l16.2-32.6a2.4,2.4,0,0,1,2-1.2h4.1a2.2,2.2,0,0,1,2,1.2l16.2,32.6Zm819.8-49.2V63.8a2.11,2.11,0,0,1-2.1,2.1h-35.2V145a1.54,1.54,0,0,1-1.5,1.5,1.28,1.28,0,0,1-1-.4l-17.5-14.9a6.06,6.06,0,0,1-2.1-4.6V65.9h-28a4.36,4.36,0,0,1-3.8-2.4L1132.3,50a1.08,1.08,0,0,1,.3-1.4,1.27,1.27,0,0,1,.6-.1H1228A2.2,2.2,0,0,1,1230.2,50.6ZM1041.5,67.4V83.5h64.2a8.71,8.71,0,0,1,0,17.4h-64.2v12a5.66,5.66,0,0,0,5.6,5.6h72.3a2.05,2.05,0,0,1,2.1,2.1v13.3a2.34,2.34,0,0,1-2.1,2.1h-78.2a22.38,22.38,0,0,1-22.3-22.3v-54A11.14,11.14,0,0,1,1030,48.6h89.3a2.05,2.05,0,0,1,2.1,2.1V64a2.34,2.34,0,0,1-2.1,2.1h-76.6C1042.1,65.9,1041.5,66.5,1041.5,67.4Zm-41.4-16.2v76.6a10.78,10.78,0,0,1-10.9,10.8,10.65,10.65,0,0,1-7-2.6L914.7,78.7v54.4a2.69,2.69,0,0,1-2.7,2.7H895a2.94,2.94,0,0,1-2.9-2.7V56.7A10.93,10.93,0,0,1,903,45.8a10.46,10.46,0,0,1,7,2.6l67.5,57.3V51.3a2.78,2.78,0,0,1,2.7-2.8h17a2.78,2.78,0,0,1,2.9,2.6ZM789.7,67.4V83.5h44.7a8.71,8.71,0,0,1,0,17.4H789.7v12a5.66,5.66,0,0,0,5.6,5.6h72.3a2.18,2.18,0,0,1,2.1,2.1v13.3a2.18,2.18,0,0,1-2.1,2.1H789.4a22.38,22.38,0,0,1-22.3-22.3v-54a11.07,11.07,0,0,1,11.1-11.1h89.3a2.18,2.18,0,0,1,2.1,2.1V64a2.18,2.18,0,0,1-2.1,2.1H791C790.3,65.9,789.7,66.5,789.7,67.4Zm-31.9,53v13.2a2.18,2.18,0,0,1-2.1,2.1H692.8a22.38,22.38,0,0,1-22.3-22.3V50.6a2.18,2.18,0,0,1,2.1-2.1h18.6a2.05,2.05,0,0,1,2.1,2.1v62.1a5.66,5.66,0,0,0,5.6,5.6h56.9a2,2,0,0,1,2,2.1ZM658.7,50.6V63.8a2.11,2.11,0,0,1-2.1,2.1H623.8V145a1.54,1.54,0,0,1-1.5,1.5,1.28,1.28,0,0,1-1-.4l-17.7-15a5.74,5.74,0,0,1-2.1-4.6V65.8H580.2a4.36,4.36,0,0,1-3.8-2.4l-6.8-13.5a1,1,0,0,1,1-1.4h85.9A2.08,2.08,0,0,1,658.7,50.6ZM347.5,91.2c4.1-1.5,12.3-5.4,12.3-16.5,0-19.1-14.1-26.2-31.1-26.2H263.9a2.05,2.05,0,0,0-2.1,2.1v83a2.11,2.11,0,0,0,2.1,2.1H337c10.7-.1,26-6.2,26-25.9C363,97.5,352,92.4,347.5,91.2ZM284.1,67.3a1.32,1.32,0,0,1,1.2-1.4h40.2c4.2,0,13.4,0,13.4,8.7s-9.3,8.7-13.4,8.7H284.1v-16Zm46.3,50.8h-45a1.32,1.32,0,0,1-1.4-1.2V100.8h46.3c4.5,0,11.7,0,11.7,8.7C342.1,118.4,333.8,118.1,330.4,118.1ZM558.8,50.6V63.8a2.11,2.11,0,0,1-2.1,2.1H531V145a1.54,1.54,0,0,1-1.5,1.5,1.28,1.28,0,0,1-1-.4l-17.7-15a5.74,5.74,0,0,1-2.1-4.6V65.8H480.9a4.36,4.36,0,0,1-3.8-2.4l-6.8-13.5a1.07,1.07,0,0,1,.8-1.3h85.5A2,2,0,0,1,558.8,50.6ZM313.7,193.9a27.38,27.38,0,0,1-2.8-2,1.61,1.61,0,0,0-.9-.3,1.49,1.49,0,0,0-1.4,1.3c-.4,4.9-1.2,5.1-1.2,5.1-.5,0-1.6-.7-2.9-4.4a57.74,57.74,0,0,0,7.9-15.2,1.43,1.43,0,0,0-.6-1.7l-3.4-1.9a1.45,1.45,0,0,0-.7-.2,1.38,1.38,0,0,0-1.3,1,55.42,55.42,0,0,1-3.9,8.7c-.5-2.9-.9-5.9-1.2-9.1,0-.1,0-.1.1-.1l10.9-1.6a1.46,1.46,0,0,0,.9-.6,2,2,0,0,0,.3-1.1l-.6-3.5a1.72,1.72,0,0,0-1.7-1.5H311l-3.8.5-6.3.9h0c-.1,0-.1,0-.1-.1-.3-4.6-.5-9.2-.6-13.7a1.37,1.37,0,0,0-1.4-1.4h-4.4a1.78,1.78,0,0,0-1,.4,1.28,1.28,0,0,0-.4,1c.2,5.6.4,10.4.7,14.7,0,.1,0,.1-.1.1l-5.4.8a1.46,1.46,0,0,0-.9.6,2,2,0,0,0-.3,1.1l.6,3.9a1.4,1.4,0,0,0,1.4,1.2h.2l4.9-.7h0c.1,0,.1,0,.1.1a125.18,125.18,0,0,0,2.5,16.1,37.38,37.38,0,0,1-9.3,7.4v-20a1.79,1.79,0,0,0-1.8-1.8h-8.2a.1.1,0,0,1-.1-.1v-8.2a.1.1,0,0,1,.1-.1h9.4a1.37,1.37,0,0,0,1.4-1.4V164a1.37,1.37,0,0,0-1.4-1.4h-9.4a.1.1,0,0,1-.1-.1v-7.7a1.37,1.37,0,0,0-1.4-1.4h-4.6a1.37,1.37,0,0,0-1.4,1.4v23.1a.1.1,0,0,1-.1.1h-6a1.79,1.79,0,0,0-1.8,1.8v25a1.11,1.11,0,0,0,1.1,1.1h4.8a1.11,1.11,0,0,0,1.1-1.1v-2.2h11.4v1.9a1.11,1.11,0,0,0,1.1,1.1h5a1.11,1.11,0,0,0,1.1-1.1v-2.3a30.2,30.2,0,0,1,3.1,3.1,1.09,1.09,0,0,0,.9.4,1.42,1.42,0,0,0,.6-.2,36.36,36.36,0,0,0,7.1-5.6c2.2,4.6,4.9,6.9,8.3,7h.1c3.3,0,5.6-3.8,6.8-11.4A2.08,2.08,0,0,0,313.7,193.9Zm-33.6,1.3a.1.1,0,0,1-.1.1H268.9a.1.1,0,0,1-.1-.1V184.9a.1.1,0,0,1,.1-.1H280a.1.1,0,0,1,.1.1Zm87.7-39.6H321.7a1.58,1.58,0,0,0-1.6,1.6v43.7a1.43,1.43,0,0,0,.6,1.2l5,4.3a.91.91,0,0,0,.7.3,1.11,1.11,0,0,0,1.1-1.1v-8.2a1.78,1.78,0,0,0,.7.8,27.82,27.82,0,0,1,2.7,2.1,1.88,1.88,0,0,0,2.7-.4,37.37,37.37,0,0,0,5.7-12.9q.75.9,1.2,1.5a1.8,1.8,0,0,0,1.5.7,1.76,1.76,0,0,0,1.5-.8l1.9-2.6a2,2,0,0,0,0-2.3,56.52,56.52,0,0,0-4.6-5.1c.6-4.2.9-9,1.2-15.6a.1.1,0,0,1,.1-.1h7.4v.1c-.1,3.6-.2,6.4-.4,9-.7-.6-1.5-1.2-2.4-1.9a2.1,2.1,0,0,0-1.1-.4,2.13,2.13,0,0,0-1.5.7l-1.7,2.1a1.88,1.88,0,0,0,.3,2.6c1.8,1.5,3.7,3.1,5.5,4.9-1.2,7-3.2,11.9-6.2,15.6a1.79,1.79,0,0,0-.4,1.4,1.83,1.83,0,0,0,.8,1.3c1,.7,2,1.5,2.8,2.1a1.88,1.88,0,0,0,2.7-.4,39,39,0,0,0,6.1-14.1c.8,1,1.6,1.9,2.2,2.7a1.8,1.8,0,0,0,1.5.7,1.76,1.76,0,0,0,1.5-.8l2-2.7a1.8,1.8,0,0,0,0-2.2,71,71,0,0,0-5.6-6.3c.5-4,.8-8.6,1-14.6a.1.1,0,0,1,.1-.1h5.1a.1.1,0,0,1,.1.1v35.2c0,.7-.1.8-.9.9h-.1a3.07,3.07,0,0,0-2.6,3.1,3.12,3.12,0,0,0,2.9,3.1c1.2.1,2.2.1,3,.1a4.69,4.69,0,0,0,2.1-.3c2.6-1.2,3.1-3.6,3.1-6.8V156.6C369.5,156.4,368.7,155.6,367.8,155.6ZM335.1,163h0l.1.1c-.1,3.6-.2,6.8-.5,9.9-1-.8-1.9-1.5-2.7-2.2a1.5,1.5,0,0,0-1.1-.4,2.13,2.13,0,0,0-1.5.7l-1.6,2.1c-.1.1-.1.2-.2.3V162.9a.1.1,0,0,1,.1-.1Zm-7.5,33.1V175.4a2.65,2.65,0,0,0,.5.6c1.8,1.5,3.8,3.2,5.6,5-1.2,6.3-3.1,11.1-5.9,14.6A.76.76,0,0,0,327.6,196.1Z" transform="translate(0.08 0.01)" fill="#fff"/>
    <path d="M877.7,92.1a11,11,0,1,1,0-.1ZM173.8,72.5c-27.9-12.9-67.9-21.1-105.6-18,1.9-12.4,6.5-21.1,14.2-23,10.5-2.5,22,4.4,33,17,7.2.9,15.7,2.6,21.6,3.9C117,14.9,90.2-6.2,69.8,1.6,54.3,7.5,46.4,28.9,47.3,57.5c-20.2,4.3-35.9,11.9-46,22.9C.8,81-.4,82.5,0,83.2c.3.5,1.3-.1,1.8-.4C13.6,74.7,28.5,70.3,48,67.5,50.8,98.1,63.8,136.9,85.1,168c-11.8,4.6-21.6,4.9-27-.8-7.5-7.9-7.2-21.3-1.8-37.1-2.8-6.7-5.6-14.9-7.4-20.7-22.5,36-27.3,69.8-10.4,83.6,12.9,10.5,35.3,6.7,59.7-8.5,13.9,15.3,28.3,25.2,42.9,28.4.7.2,2.6.4,3-.3.3-.5-.7-1.1-1.2-1.4-12.9-6-24.2-16.8-36.4-32.3,25-17.7,52.2-48.3,68.4-82.5,9.9,7.9,15.1,16.3,12.8,23.8-3.1,10.4-14.8,16.9-31.2,20.1-4.4,5.7-10.1,12.3-14.2,16.7,42.6,1.5,74.2-11.2,77.7-32.7,2.6-16.4-11.9-33.9-37.2-47.4,6.4-19.6,7.6-37.1,3.2-51.3-.3-.7-1-2.5-1.8-2.5-.6,0-.6,1.2-.6,1.7C184.8,39.1,181.2,54.3,173.8,72.5ZM95.5,163.1c-18-28.8-28.4-62.9-28.3-97.2h0c34-1.1,68.6,6.9,98.4,24.1h0c-16.1,30-40.3,56.1-70.1,73.1Zm219.3-4.8a5.72,5.72,0,0,0-5.8-5.7,5.8,5.8,0,1,0,5.8,5.7Z" transform="translate(0.08 0.01)" fill="#148eff"/>
  </g>
</svg>
