<?xml version="1.0" standalone="no"?><!DOCTYPE svg PUBLIC "-//W3C//DTD SVG 1.1//EN" "http://www.w3.org/Graphics/SVG/1.1/DTD/svg11.dtd"><svg t="1639206728560" class="icon" viewBox="0 0 1024 1024" version="1.1" xmlns="http://www.w3.org/2000/svg" p-id="7315" xmlns:xlink="http://www.w3.org/1999/xlink" width="200" height="200"><defs><style type="text/css"></style></defs><path d="M764.387582 823.87206H238.901223c-16.135466 0-29.140169-13.004704-29.140169-29.140169V191.698965c0-16.135466 13.004704-29.140169 29.140169-29.140169h525.486359c16.135466 0 29.140169 13.004704 29.14017 29.140169V794.731891c0 15.894638-13.004704 29.140169-29.14017 29.140169zM238.901223 177.249294c-7.947319 0-14.208843 6.502352-14.208843 14.208843V794.731891c0 7.947319 6.502352 14.208843 14.208843 14.208843h525.486359c7.947319 0 14.208843-6.502352 14.208843-14.208843V191.698965c0-7.947319-6.502352-14.208843-14.208843-14.208843H238.901223z" fill="#1296db" p-id="7316"></path><path d="M312.594544 330.415804h344.383819v7.465664h-344.383819zM312.594544 431.804327h344.383819v7.465664h-344.383819zM312.594544 533.433678h275.988711v7.465663H312.594544zM211.206021 357.870179c-12.523048-1.204139-20.952023-6.502352-20.952023-13.004704 0-7.465663 11.318909-13.245532 26.009407-13.245531s26.009407 5.779868 26.009408 13.245531c0 5.779868-6.502352 10.596425-16.617122 12.523048l-0.722483-4.334901c7.706491-1.444967 13.245532-4.816557 13.245531-8.188147 0-4.334901-8.91063-8.91063-21.674506-8.91063s-21.674506 4.816557-21.674506 8.91063c0 3.37159 6.261524 7.706491 17.098777 8.669803l-0.722483 4.334901zM211.206021 506.220132c-12.523048-1.204139-20.952023-6.502352-20.952023-13.004704 0-7.465663 11.318909-13.245532 26.009407-13.245531s26.009407 5.779868 26.009408 13.245531c0 5.779868-6.502352 10.596425-16.617122 12.523048l-0.722483-4.334901c7.706491-1.444967 13.245532-4.816557 13.245531-8.188147 0-4.334901-8.91063-8.91063-21.674506-8.91063s-21.674506 4.816557-21.674506 8.91063c0 3.37159 6.261524 7.706491 17.098777 8.669802l-0.722483 4.334902zM211.206021 654.810913c-12.523048-1.204139-20.952023-6.502352-20.952023-13.004704 0-7.465663 11.318909-13.245532 26.009407-13.245532s26.009407 5.779868 26.009408 13.245532c0 5.779868-6.502352 10.596425-16.617122 12.523048l-0.722483-4.334901c7.706491-1.444967 13.245532-4.816557 13.245531-8.188147 0-4.334901-8.91063-8.91063-21.674506-8.91063s-21.674506 4.816557-21.674506 8.91063c0 3.37159 6.261524 7.706491 17.098777 8.669802l-0.722483 4.334902z" fill="#1296db" p-id="7317"></path></svg>